# xmcd
#
# Track frame offsets:
#       150
#       13075
#       26140
#       39713
#       49842
#       62739
#       71387
#       77525
#       89289
#       100860
#       115363
#       128847
#       141771
#       152175
#       165749
#       180273
#       192936
#       203640
#       215169
#       227019
#
# Disc length: 3177 seconds
#
# Revision: 2
# Processed by: cddbd v1.5.2PL0 Copyright (c) Steve Scherf et al.
# Submitted via: FreeDbEdit v0.1
#
DISCID=140c6714
DTITLE=Dean Martin - Very Best of Disc One
DYEAR=1900
DGENRE=
TTITLE0=All of Me
TTITLE1=I Got the Sun in the Morning
TTITLE2=Absence Makes the Heart Grow Fonder (For Someone Else)
TTITLE3=Ghost Riders in the Sky
TTITLE4=High Noon
TTITLE5=I Don't Care of the Sun Don't Shine
TTITLE6=The Money Song
TTITLE7=I Still Get a Thrill
TTITLE8=I'll Always Love You (Day After Day)
TTITLE9=I'm Gonna Paper All My Walls With Your Love Letters
TTITLE10=In the Cool, Cool, Cool of the Evening
TTITLE11=Which Way Did My Heart Go
TTITLE12=Who's Sorry Now
TTITLE13=My Own My Only My All
TTITLE14=Never Before (Sailor Beware)
TTITLE15=Just for Fun
TTITLE16=Kiss
TTITLE17=Oh Marie
TTITLE18=Three Wishes
TTITLE19=Dreamy Old New England Moon
EXTD=
EXTT0=
EXTT1=
EXTT2=
EXTT3=
EXTT4=
EXTT5=
EXTT6=
EXTT7=
EXTT8=
EXTT9=
EXTT10=
EXTT11=
EXTT12=
EXTT13=
EXTT14=
EXTT15=
EXTT16=
EXTT17=
EXTT18=
EXTT19=
PLAYORDER=
